<?xml version="1.0" encoding="utf-8"?>
<!-- Generator: Adobe Illustrator 24.0.2, SVG Export Plug-In . SVG Version: 6.00 Build 0)  -->
<svg version="1.1" id="图层_1" xmlns="http://www.w3.org/2000/svg" xmlns:xlink="http://www.w3.org/1999/xlink" x="0px" y="0px"
	 viewBox="0 0 200 200" style="enable-background:new 0 0 200 200;" xml:space="preserve">
<style type="text/css">
	.st0{fill:#FFFFFF;}
</style>
<path class="st0" d="M185.7,117.2l-2.7-2.8c1.1-0.7,1.9-1.8,2.4-3c0.7-1.7,0.6-3.7-0.2-5.4l-4.8-9.9c-1.7-3.5-5.4-3.8-8-3.7
	c0,0-0.2,0-0.3,0l-9.5,1.1l-8.3-8.5c-1.2-1.3-3-2-4.7-2h-47.2c-1.8,0-3.5,0.7-4.7,2l-8.3,8.5l-9.4-1.1c0,0-0.3,0-0.3,0
	c-1.5,0-6.1-0.2-8,3.7l-4.8,9.9c-0.8,1.7-0.9,3.6-0.2,5.4c0.5,1.2,1.3,2.2,2.4,3l-2.7,2.8c-1.2,1.3-1.9,2.9-1.9,4.6v41.7
	c0,3.7,3,6.6,6.6,6.6H88c3.7,0,6.6-3,6.6-6.6v-6.9c0-0.1,0.1-0.2,0.2-0.2l36.7,0c0.1,0,0.2,0,0.3,0h25c0.1,0,0.2,0.1,0.2,0.2v6.9
	c0,3.7,3,6.6,6.6,6.6h17.2h0c3.7,0,6.6-3,6.6-6.6v-41.7C187.6,120.2,186.9,118.5,185.7,117.2z M172.6,98.9c0.1,0,0.2,0,0.3,0
	c1.3,0,1.6,0.2,1.6,0.1l4.8,9.9l0.9-0.4l0,0l-1,0.7l-1.1,0.4l-10-10.2L172.6,98.9z M92.3,99.7c0.4-0.3,0.8-0.6,1.1-1.1l8.8-9
	l0.2-0.1h43.3l4,0.1l8.8,9c0.3,0.5,0.6,0.8,1.1,1.1l17.3,17.7h-102L92.3,99.7z M72.2,110.2l0.2-1.3l4.8-9.8c0,0,0.3-0.2,1.7-0.2
	c0.1,0,0.2,0,0.3,0l4.4,0.5l-10,10.2l-1.1-0.4L72.2,110.2L72.2,110.2z M181.2,163.6c0,0.1-0.1,0.2-0.2,0.2h-17.2
	c-0.1,0-0.2-0.1-0.2-0.2v-6.9c0-3.7-3-6.6-6.6-6.6v0l-25.1,0c-0.1,0-0.2,0-0.3,0H94.9c-3.7,0-6.6,3-6.6,6.6v6.9
	c0,0.1-0.1,0.2-0.2,0.2H70.9c-0.1,0-0.2-0.1-0.2-0.2v-39.7h110.5V163.6z"/>
<path class="st0" d="M54.2,153.8c-20.6-11.1-33.4-32.5-33.4-55.9c0-15.4,5.6-30.3,15.7-41.8c1.5-1.7,1.3-4.3-0.4-5.8
	c-1.7-1.5-4.3-1.3-5.8,0.4C18.8,63.7,12.5,80.4,12.5,97.8c0,26.4,14.5,50.6,37.7,63.2c0.6,0.3,1.3,0.5,1.9,0.5
	c1.5,0,2.9-0.8,3.6-2.2C56.9,157.3,56.2,154.9,54.2,153.8z"/>
<path class="st0" d="M149.5,68.1c-11.6-25.5-37.2-42-65.3-42c-0.1,0-0.2,0-0.3,0c-0.1,0-0.2,0-0.3,0c-2.3,0-4.1,1.8-4.1,4.1V55
	c0,2.3,1.8,4.1,4.1,4.1s4.1-1.8,4.1-4.1V34.4c23.4,1.3,44.5,15.5,54.3,37.1c0.7,1.5,2.2,2.4,3.7,2.4c0.6,0,1.2-0.1,1.7-0.4
	C149.5,72.6,150.4,70.2,149.5,68.1z"/>
<path class="st0" d="M165.7,130.3H152c-1.8,0-3.2,1.4-3.2,3.2c0,1.8,1.4,3.2,3.2,3.2h13.7c1.8,0,3.2-1.4,3.2-3.2
	C168.9,131.8,167.5,130.3,165.7,130.3z"/>
<path class="st0" d="M99.8,130.3H86.1c-1.8,0-3.2,1.4-3.2,3.2c0,1.8,1.4,3.2,3.2,3.2h13.7c1.8,0,3.2-1.4,3.2-3.2
	C103,131.8,101.6,130.3,99.8,130.3z"/>
<path class="st0" d="M48.8,63c-0.2,0.2,10,17,18.6,30.9l16-11.1C68.8,74.2,49,62.8,48.8,63z"/>
</svg>
